<?xml version="1.0" encoding="UTF-8"?>
<svg width="326px" height="37px" viewBox="0 0 326 37" version="1.1" xmlns="http://www.w3.org/2000/svg" xmlns:xlink="http://www.w3.org/1999/xlink">
    <title>berger_logo</title>
    <g id="Page-1" stroke="none" stroke-width="1" fill="none" fill-rule="evenodd">
        <g id="homepage" transform="translate(-1142.000000, -42.000000)" fill="#C23F35">
            <g id="berger_logo" transform="translate(1142.000100, 41.999500)">
                <path d="M29.119669,35.3165804 L18.8402305,35.3165804 L27.0833734,13.9466674 L43.0059842,13.9466674 L36.7967281,30.0432761 C35.5706148,33.2212543 32.5201862,35.3165804 29.119669,35.3165804" id="Fill-1"></path>
                <polygon id="Fill-3" points="29.1103547 1.1227087 13.1877438 1.1227087 -3.70847305e-14 35.3163391 15.9226108 35.3163391"></polygon>
                <polygon id="Fill-5" points="145.013713 27.6957065 145.013713 35.3160978 108.587629 35.3160978 108.587629 1.12246739 144.476535 1.12246739 144.476535 8.74366304 118.390112 8.74366304 118.390112 14.3604239 139.894067 14.3604239 139.894067 21.6389674 118.390112 21.6389674 118.390112 27.6957065"></polygon>
                <path d="M236.649181,28.8688478 C232.992521,33.411 226.262147,36.4401739 217.144585,36.4401739 C203.150674,36.4401739 194.471526,29.7962609 194.471526,18.2192826 C194.471526,6.64391304 203.150674,-5.4294733e-14 217.144585,-5.4294733e-14 C225.580437,-5.4294733e-14 231.676477,2.97930435 235.235979,6.30126087 L227.970033,11.6751087 C225.04326,9.03684783 221.972758,7.86491304 217.388684,7.86491304 C209.098167,7.86491304 204.563876,11.527913 204.563876,18.2192826 C204.563876,24.9613261 209.245107,28.6243261 217.535625,28.6243261 C221.727856,28.6243261 225.04326,27.7942391 227.433659,25.5959565 L227.433659,22.5177174 L216.120014,22.5177174 L218.879772,15.5327609 L236.649181,15.5327609 L236.649181,28.8688478 Z" id="Fill-7"></path>
                <polygon id="Fill-10" points="279.419097 27.6957065 279.419097 35.3160978 242.993816 35.3160978 242.993816 1.12246739 278.882722 1.12246739 278.882722 8.74366304 252.795496 8.74366304 252.795496 14.3604239 274.299451 14.3604239 274.299451 21.6389674 252.795496 21.6389674 252.795496 27.6957065"></polygon>
                <path d="M181.493514,23.6904565 C186.857258,22.1276087 190.465741,18.5128696 190.465741,12.7971739 C190.465741,4.98213043 183.687189,1.12286957 174.959061,1.12286957 L151.016529,1.12286957 L151.016529,35.3165 L160.915367,35.3165 L160.867189,8.695 L174.227568,8.695 C177.787071,8.695 180.371785,9.67147826 180.371785,12.9934348 C180.371785,16.314587 177.787071,17.2918696 174.227568,17.2918696 L166.891766,17.2918696 L163.655854,24.5205435 L170.961145,24.5205435 L179.981549,35.3165 L191.53849,35.3165 L181.493514,23.6904565 Z" id="Fill-12"></path>
                <path d="M315.726022,23.6908587 C321.089766,22.1280109 324.698248,18.5132717 324.698248,12.7983804 C324.698248,4.98253261 317.919697,1.12327174 309.191568,1.12327174 L285.249036,1.12327174 L285.249036,35.3169022 L295.147874,35.3169022 L295.099697,8.69540217 L308.460076,8.69540217 C312.019578,8.69540217 314.604293,9.67188043 314.604293,12.993837 C314.604293,16.3149891 312.019578,17.2922717 308.460076,17.2922717 L301.124273,17.2922717 L297.888362,24.5209457 L305.193652,24.5209457 L314.214056,35.3169022 L325.770997,35.3169022 L315.726022,23.6908587 Z" id="Fill-14"></path>
                <path d="M87.3472034,28.3794826 L79.2156714,28.3794826 L72.9124695,28.3786783 L72.9124695,21.1998739 L79.2156714,21.1998739 L87.3472034,21.1998739 C90.8569227,21.1998739 92.9542429,21.9808957 92.9542429,24.7655478 C92.9542429,27.5493957 90.8569227,28.3794826 87.3472034,28.3794826 L87.3472034,28.3794826 Z M72.9124695,8.05924348 L85.834435,8.05924348 C89.1506419,8.05924348 91.3451197,8.79200435 91.3451197,11.3812 C91.3451197,14.0194609 89.1506419,14.7514174 85.834435,14.7514174 L72.9124695,14.7514174 L72.9124695,10.1537652 L72.9124695,8.05924348 Z M93.3934596,17.4870043 C98.5131049,17.1942217 101.194977,13.8232 101.194977,9.96474348 C101.194977,4.49356957 95.8794103,1.12254783 87.4933414,1.12254783 L63.0642182,1.12254783 L63.0642182,10.1537652 L63.0642182,21.1998739 L63.0642182,35.3161783 L89.4437207,35.3161783 C97.8313956,35.3161783 103.145356,31.8478304 103.145356,25.9374826 C103.145356,20.6617652 98.7564005,17.8288522 93.3934596,17.4870043 L93.3934596,17.4870043 Z" id="Fill-16"></path>
            </g>
        </g>
    </g>
</svg>